<svg xmlns="http://www.w3.org/2000/svg" width="420" height="366"><path d="M 213.1,12.3 L 409.7,353.0 L 409.7,353.0 L 409.9,353.4 L 410.0,353.8 L 410.0,353.8 L 410.0,354.2 L 409.9,354.6 L 409.9,354.6 L 409.7,355.0 L 409.7,355.0 L 409.5,355.3 L 409.5,355.3 L 409.2,355.6 L 409.2,355.6 L 408.8,355.8 L 408.4,356.0 L 408.4,356.0 L 408.0,356.0 L 405.4,356.0 L 12.0,356.0 L 12.0,356.0 L 11.6,356.0 L 11.6,356.0 L 11.2,355.8 L 11.2,355.8 L 10.8,355.6 L 10.8,355.6 L 10.5,355.3 L 10.5,355.3 L 10.3,355.0 L 10.1,354.6 L 10.1,354.6 L 10.0,354.2 L 10.0,354.2 L 10.0,353.8 L 10.0,353.8 L 10.1,353.4 L 10.1,353.4 L 10.3,353.0 L 11.6,350.7 L 208.3,10.0 L 208.3,10.0 L 208.5,9.7 L 208.5,9.7 L 208.8,9.4 L 208.8,9.4 L 209.2,9.2 L 209.6,9.1 L 209.6,9.1 L 210.0,9.0 L 210.0,9.0 L 210.4,9.1 L 210.4,9.1 L 210.8,9.2 L 210.8,9.2 L 211.2,9.4 L 211.2,9.4 L 211.5,9.7 L 211.5,9.7 L 211.7,10.0 L 213.1,12.3 Z" fill="none" stroke="black" stroke-width="1.5"/><path d="M 211.7,353.0 L 211.7,353.0 L 211.5,353.3 L 211.5,353.3 L 211.2,353.6 L 211.2,353.6 L 210.8,353.8 L 210.8,353.8 L 210.4,353.9 L 210.4,353.9 L 210.0,354.0 L 210.0,354.0 L 209.6,353.9 L 209.6,353.9 L 209.2,353.8 L 209.2,353.8 L 208.8,353.6 L 208.8,353.6 L 208.5,353.3 L 208.5,353.3 L 208.3,353.0 L 111.7,185.7 L 111.0,184.5 L 111.0,184.5 L 110.8,184.1 L 110.8,184.1 L 110.7,183.7 L 110.7,183.7 L 110.7,183.3 L 110.7,183.3 L 110.8,182.9 L 110.8,182.9 L 111.0,182.5 L 111.0,182.5 L 111.2,182.2 L 111.3,182.2 L 111.6,181.9 L 111.6,181.9 L 111.9,181.7 L 111.9,181.7 L 112.3,181.6 L 112.3,181.6 L 112.7,181.5 L 306.0,181.5 L 307.3,181.5 L 307.3,181.5 L 307.7,181.6 L 307.7,181.6 L 308.1,181.7 L 308.1,181.7 L 308.4,181.9 L 308.4,181.9 L 308.8,182.2 L 308.8,182.2 L 309.0,182.5 L 309.0,182.5 L 309.2,182.9 L 309.2,182.9 L 309.3,183.3 L 309.3,183.3 L 309.3,183.7 L 309.3,183.7 L 309.2,184.1 L 309.2,184.1 L 309.0,184.5 L 212.4,351.9 L 211.7,353.0 Z" fill="none" stroke="black" stroke-width="1.5"/></svg>